<svg width="13" height="15" viewBox="0 0 13 15" fill="none" xmlns="http://www.w3.org/2000/svg">
<path d="M6.92917 3.51154C7.59786 3.51154 8.43607 3.05947 8.93523 2.45671C9.38729 1.91046 9.71693 1.1476 9.71693 0.384734C9.71693 0.281135 9.70751 0.177536 9.68867 0.0927734C8.94464 0.121028 8.04993 0.591932 7.5131 1.22294C7.08928 1.70327 6.70314 2.45671 6.70314 3.229C6.70314 3.34201 6.72198 3.45503 6.73139 3.4927C6.77849 3.50212 6.85383 3.51154 6.92917 3.51154ZM4.57465 14.9074C5.48821 14.9074 5.89319 14.2952 7.03277 14.2952C8.1912 14.2952 8.44549 14.8886 9.46264 14.8886C10.461 14.8886 11.1296 13.9656 11.7607 13.0615C12.467 12.0255 12.759 11.0083 12.7778 10.9612C12.7119 10.9424 10.8 10.1607 10.8 7.96629C10.8 6.06384 12.3069 5.20679 12.3917 5.14087C11.3933 3.70932 9.87703 3.67165 9.46264 3.67165C8.34189 3.67165 7.42833 4.34975 6.85383 4.34975C6.23224 4.34975 5.41286 3.70932 4.4428 3.70932C2.59685 3.70932 0.722656 5.23505 0.722656 8.11698C0.722656 9.90642 1.41959 11.7995 2.27664 13.0238C3.01125 14.0598 3.65168 14.9074 4.57465 14.9074Z" fill="#1A171F"/>
</svg>
