<svg width="17" height="17" viewBox="0 0 17 17" fill="none" xmlns="http://www.w3.org/2000/svg">
<path d="M15.2872 7.19425H14.7502V7.16658H8.75016V9.83325H12.5178C11.9682 11.3856 10.4912 12.4999 8.75016 12.4999C6.54116 12.4999 4.75016 10.7089 4.75016 8.49992C4.75016 6.29092 6.54116 4.49992 8.75016 4.49992C9.76983 4.49992 10.6975 4.88458 11.4038 5.51292L13.2895 3.62725C12.0988 2.51759 10.5062 1.83325 8.75016 1.83325C5.0685 1.83325 2.0835 4.81825 2.0835 8.49992C2.0835 12.1816 5.0685 15.1666 8.75016 15.1666C12.4318 15.1666 15.4168 12.1816 15.4168 8.49992C15.4168 8.05292 15.3708 7.61658 15.2872 7.19425Z" fill="#FFC107"/>
<path d="M2.85205 5.39692L5.04238 7.00325C5.63505 5.53592 7.07038 4.49992 8.75005 4.49992C9.76972 4.49992 10.6974 4.88459 11.4037 5.51292L13.2894 3.62725C12.0987 2.51759 10.5061 1.83325 8.75005 1.83325C6.18938 1.83325 3.96872 3.27892 2.85205 5.39692Z" fill="#FF3D00"/>
<path d="M8.74994 15.1667C10.4719 15.1667 12.0366 14.5077 13.2196 13.436L11.1563 11.69C10.4645 12.2161 9.61909 12.5007 8.74994 12.5C7.01594 12.5 5.54361 11.3943 4.98894 9.85132L2.81494 11.5263C3.91827 13.6853 6.15894 15.1667 8.74994 15.1667Z" fill="#4CAF50"/>
<path d="M15.287 7.19441H14.75V7.16675H8.75V9.83341H12.5177C12.2547 10.5722 11.7811 11.2178 11.1553 11.6904L11.1563 11.6897L13.2197 13.4357C13.0737 13.5684 15.4167 11.8334 15.4167 8.50008C15.4167 8.05308 15.3707 7.61675 15.287 7.19441Z" fill="#1976D2"/>
</svg>
