<?xml version="1.0" standalone="no"?>
<!DOCTYPE svg PUBLIC "-//W3C//DTD SVG 20010904//EN"
 "http://www.w3.org/TR/2001/REC-SVG-20010904/DTD/svg10.dtd">
<svg version="1.0" xmlns="http://www.w3.org/2000/svg"
 width="530.000000pt" height="410.000000pt" viewBox="0 0 530.000000 410.000000"
 preserveAspectRatio="xMidYMid meet">
<metadata>
Created by potrace 1.16, written by Peter Selinger 2001-2019
</metadata>
<g transform="translate(0.000000,410.000000) scale(0.100000,-0.100000)"
fill="#000000" stroke="none">
<path d="M1836 1679 c-118 -29 -184 -78 -204 -152 -19 -70 19 -391 72 -595 13
-51 22 -102 19 -115 -3 -15 -2 -18 4 -9 6 8 9 -6 10 -38 2 -135 103 -220 263
-220 39 0 70 4 70 8 0 5 14 6 31 4 24 -3 30 -1 24 8 -5 9 -2 10 12 6 13 -4 37
6 75 34 31 22 65 40 75 40 15 0 16 2 3 10 -25 16 70 12 147 -6 90 -21 502 -14
603 11 36 8 88 20 116 25 142 24 274 154 274 268 0 21 4 42 9 48 29 32 41 274
16 329 l-13 30 -1 -40 c-6 -191 -22 -345 -42 -399 -26 -67 -93 -146 -154 -181
-52 -31 -232 -70 -398 -86 -184 -17 -426 4 -570 52 l-63 21 -43 219 c-23 121
-59 324 -80 450 -41 246 -46 259 -108 285 -40 17 -50 17 -147 -7z"/>
</g>
</svg>
